<svg width="300" height="302" viewBox="0 0 300 302" fill="none" xmlns="http://www.w3.org/2000/svg">
<path d="M150 0C232.843 0 300 67.1573 300 150C300 232.843 232.843 300 150 300C67.1573 300 0 232.843 0 150C0 67.1573 67.1573 0 150 0ZM150 13C74.337 13 13 74.337 13 150C13 225.663 74.337 287 150 287C225.663 287 287 225.663 287 150C287 74.337 225.663 13 150 13Z" fill="white"/>
<path d="M94.6094 12.6023C126.295 0.0116919 161.324 -1.40892 193.925 8.57501C226.525 18.559 254.752 39.3516 273.953 67.5262C293.154 95.7006 302.183 129.576 299.554 163.569C296.924 197.563 282.791 229.647 259.485 254.533L249.995 245.645C272.946 221.149 287.001 188.216 287.001 152C287.001 76.3368 225.664 14.9998 150.001 14.9998C132.127 14.9998 115.052 18.4238 99.3965 24.6502L94.6094 12.6023Z" fill="white"/>
<path d="M99.6759 24.5381C48.9125 44.5969 13.0002 94.1047 13.0002 152C13.0002 227.663 74.3372 289 150 289C189.706 289 225.465 272.108 250.486 245.119L260.023 253.956C244.712 270.478 225.876 283.34 204.914 291.587C183.952 299.833 161.402 303.253 138.938 301.592C116.473 299.931 94.6714 293.231 75.1506 281.99C55.6297 270.75 38.8909 255.258 26.1769 236.663C13.4629 218.068 5.09996 196.848 1.70915 174.579C-1.68157 152.31 -0.0133801 129.563 6.59001 108.027C13.1934 86.4912 24.5629 66.7187 39.8537 50.1777C55.1444 33.6369 73.9644 20.7525 94.9162 12.4805L99.6759 24.5381Z" fill="black"/>
<mask id="path-4-inside-1_613_48" fill="white">
<path d="M99.6759 24.5381C48.9125 44.5969 13.0002 94.1047 13.0002 152C13.0002 227.663 74.3372 289 150 289C189.706 289 225.465 272.108 250.486 245.119L260.023 253.956C244.712 270.478 225.876 283.34 204.914 291.587C183.952 299.833 161.402 303.253 138.938 301.592C116.473 299.931 94.6714 293.231 75.1506 281.99C55.6297 270.75 38.8909 255.258 26.1769 236.663C13.4629 218.068 5.09996 196.848 1.70915 174.579C-1.68157 152.31 -0.0133801 129.563 6.59001 108.027C13.1934 86.4912 24.5629 66.7187 39.8537 50.1777C55.1444 33.6369 73.9644 20.7525 94.9162 12.4805L99.6759 24.5381Z"/>
</mask>
<path d="M99.6759 24.5381L100.043 25.4681L100.973 25.1007L100.606 24.1709L99.6759 24.5381ZM150 289L150 290H150V289ZM250.486 245.119L251.166 244.386L250.433 243.706L249.753 244.439L250.486 245.119ZM260.023 253.956L260.756 254.636L261.436 253.902L260.702 253.223L260.023 253.956ZM204.914 291.587L205.28 292.517L205.28 292.517L204.914 291.587ZM138.938 301.592L138.864 302.589L138.864 302.589L138.938 301.592ZM75.1506 281.99L74.6516 282.857L74.6516 282.857L75.1506 281.99ZM26.1769 236.663L25.3514 237.228L25.3514 237.228L26.1769 236.663ZM1.70915 174.579L0.72054 174.73L0.72054 174.73L1.70915 174.579ZM6.59001 108.027L5.63394 107.734L5.63394 107.734L6.59001 108.027ZM39.8537 50.1777L39.1194 49.4989L39.1194 49.4989L39.8537 50.1777ZM94.9162 12.4805L95.8463 12.1133L95.4791 11.1831L94.5489 11.5503L94.9162 12.4805ZM99.6759 24.5381L99.3084 23.6081C48.1762 43.8126 12.0002 93.6805 12.0002 152H13.0002H14.0002C14.0002 94.5288 49.6488 45.3812 100.043 25.4681L99.6759 24.5381ZM13.0002 152H12.0002C12.0002 228.215 73.7849 290 150 290L150 289L150 288C74.8895 288 14.0002 227.111 14.0002 152H13.0002ZM150 289V290C189.995 290 226.017 272.983 251.22 245.799L250.486 245.119L249.753 244.439C224.913 271.232 189.416 288 150 288V289ZM250.486 245.119L249.807 245.853L259.343 254.69L260.023 253.956L260.702 253.223L251.166 244.386L250.486 245.119ZM260.023 253.956L259.289 253.276C244.08 269.688 225.37 282.465 204.548 290.656L204.914 291.587L205.28 292.517C226.382 284.216 245.343 271.268 260.756 254.636L260.023 253.956ZM204.914 291.587L204.548 290.656C183.726 298.848 161.326 302.245 139.011 300.595L138.938 301.592L138.864 302.589C161.478 304.261 184.179 300.819 205.28 292.517L204.914 291.587ZM138.938 301.592L139.011 300.595C116.697 298.944 95.0403 292.289 75.6496 281.124L75.1506 281.99L74.6516 282.857C94.3026 294.172 116.25 300.917 138.864 302.589L138.938 301.592ZM75.1506 281.99L75.6496 281.124C56.2589 269.958 39.6316 254.569 27.0024 236.099L26.1769 236.663L25.3514 237.228C38.1501 255.946 55.0006 271.542 74.6516 282.857L75.1506 281.99ZM26.1769 236.663L27.0024 236.099C14.3732 217.628 6.06596 196.549 2.69775 174.429L1.70915 174.579L0.72054 174.73C4.13396 197.147 12.5527 218.509 25.3514 237.228L26.1769 236.663ZM1.70915 174.579L2.69775 174.429C-0.670356 152.308 0.98671 129.713 7.54607 108.32L6.59001 108.027L5.63394 107.734C-1.01347 129.414 -2.69278 152.312 0.72054 174.73L1.70915 174.579ZM6.59001 108.027L7.54607 108.32C14.1055 86.928 25.3991 67.2872 40.588 50.8565L39.8537 50.1777L39.1194 49.4989C23.7267 66.1501 12.2814 86.0545 5.63394 107.734L6.59001 108.027ZM39.8537 50.1777L40.588 50.8565C55.7768 34.426 74.4713 21.6275 95.2834 13.4106L94.9162 12.4805L94.5489 11.5503C73.4575 19.8775 54.5121 32.8478 39.1194 49.4989L39.8537 50.1777ZM94.9162 12.4805L93.986 12.8476L98.7458 24.9053L99.6759 24.5381L100.606 24.1709L95.8463 12.1133L94.9162 12.4805Z" fill="#313131" mask="url(#path-4-inside-1_613_48)"/>
<path d="M132.718 70.7098C146.958 66.8578 161.998 67.1165 176.097 71.4558C190.196 75.7953 202.778 84.0389 212.388 95.2312L200.025 105.845C188.194 91.6033 170.351 82.534 150.39 82.534C114.77 82.534 85.8946 111.41 85.8946 147.029C85.8949 182.648 114.77 211.523 150.39 211.523C162.587 211.523 173.994 208.136 183.721 202.253L184.913 204.439V217.473C173.402 222.603 160.79 224.888 148.151 224.083C133.429 223.145 119.274 218.058 107.322 209.41C95.371 200.762 86.1119 188.908 80.6173 175.218C75.1227 161.527 73.6167 146.561 76.2735 132.051C78.9304 117.54 85.6412 104.078 95.63 93.2224C105.619 82.3671 118.478 74.5618 132.718 70.7098Z" fill="white"/>
<path d="M184.909 211.481C181.606 215.289 177.956 218.786 174.009 221.928V157.021H144.941V146.121H184.909V211.481Z" fill="white"/>
<rect x="195.812" y="146.121" width="10.9005" height="99.0129" fill="white"/>
</svg>
