<svg width="300" height="302" viewBox="0 0 300 302" fill="none" xmlns="http://www.w3.org/2000/svg">
<path fill-rule="evenodd" clip-rule="evenodd" d="M150 0C232.843 0 300 67.1573 300 150C300 232.843 232.843 300 150 300C67.1573 300 0 232.843 0 150C0 67.1573 67.1573 0 150 0ZM150 13C74.337 13 13 74.337 13 150C13 225.663 74.337 287 150 287C225.663 287 287 225.663 287 150C287 74.337 225.663 13 150 13Z" fill="white"/>
<path d="M94.6094 12.6023C126.295 0.011692 161.324 -1.40892 193.925 8.57501C226.525 18.559 254.752 39.3516 273.953 67.5262C293.154 95.7006 302.183 129.576 299.554 163.569C296.924 197.563 282.791 229.647 259.485 254.533L249.995 245.645C272.946 221.149 287.001 188.216 287.001 152C287.001 76.3368 225.664 14.9998 150.001 14.9998C132.127 14.9998 115.052 18.4238 99.3965 24.6502L94.6094 12.6023Z" fill="white"/>
<path d="M99.6759 24.5381C48.9125 44.5969 13.0002 94.1047 13.0002 152C13.0002 227.663 74.3372 289 150 289C189.706 289 225.465 272.108 250.486 245.119L260.023 253.956C244.712 270.478 225.876 283.34 204.914 291.587C183.952 299.833 161.402 303.253 138.938 301.592C116.473 299.931 94.6714 293.231 75.1506 281.99C55.6297 270.75 38.8909 255.258 26.1769 236.663C13.4629 218.068 5.09996 196.848 1.70915 174.579C-1.68157 152.31 -0.0133801 129.563 6.59001 108.027C13.1934 86.4912 24.5629 66.7187 39.8537 50.1777C55.1444 33.6369 73.9644 20.7525 94.9162 12.4805L99.6759 24.5381Z" fill="black"/>
<path d="M132.718 70.7098C146.958 66.8578 161.998 67.1165 176.097 71.4559C190.196 75.7953 202.778 84.038 212.388 95.2303L200.024 105.845C188.194 91.6029 170.352 82.534 150.391 82.534C114.771 82.534 85.8956 111.41 85.8956 147.029C85.8958 182.648 114.771 211.523 150.391 211.523C162.588 211.523 173.994 208.136 183.721 202.253L184.915 204.443V217.472C173.403 222.603 160.791 224.887 148.151 224.082C133.429 223.144 119.274 218.058 107.322 209.41C95.371 200.762 86.1119 188.908 80.6173 175.218C75.1227 161.527 73.6168 146.561 76.2735 132.051C78.9304 117.54 85.6421 104.078 95.6309 93.2225C105.62 82.3672 118.478 74.5618 132.718 70.7098Z" fill="white"/>
<path d="M184.91 146V217H177.954V155.363H144.91V146H184.91Z" fill="white"/>
<path d="M195.814 146.121H206.715V245.134H195.814V146.121Z" fill="white"/>
</svg>
