<svg width="156" height="203" viewBox="0 0 156 203" fill="none" xmlns="http://www.w3.org/2000/svg">
<path d="M66.3322 2.70914C82.3096 -1.34987 99.1063 -0.839036 114.808 4.18277C130.509 9.20467 144.485 18.5359 155.142 31.1134L147.512 37.5763C133.204 20.707 111.853 10.0002 88.0001 10.0002C44.9221 10.0003 10.0002 44.9221 10.0001 88.0002C10.0001 131.078 44.922 166 88.0001 166C100.363 166 112.054 163.123 122.441 158.003L126.848 166.961C112.056 174.238 95.5172 177.215 79.1164 175.551C62.7155 173.887 47.1116 167.649 34.0832 157.549C21.0546 147.449 11.125 133.892 5.42593 118.423C-0.273144 102.954 -1.51252 86.1955 1.84878 70.0568C5.2101 53.9181 13.037 39.0479 24.4376 27.1408C35.8384 15.2337 50.3547 6.7682 66.3322 2.70914Z" fill="white"/>
<path d="M117 105H127V167H117V105Z" fill="url(#paint0_linear_638_110)"/>
<path d="M139 85H149V203H139V85Z" fill="white"/>
<path d="M75 95V85H149V95H75Z" fill="white"/>
<defs>
<linearGradient id="paint0_linear_638_110" x1="122" y1="158.5" x2="122" y2="105" gradientUnits="userSpaceOnUse">
<stop stop-color="white"/>
<stop offset="1"/>
</linearGradient>
</defs>
</svg>
