<svg width="162" height="208" viewBox="0 0 162 208" fill="none" xmlns="http://www.w3.org/2000/svg">
<path d="M155 207.999H137V85.9995H155V207.999Z" fill="url(#paint0_linear_633_259)"/>
<path d="M71.6055 1.71627C88.4444 -1.63953 105.895 -0.0522771 121.853 6.2856C137.81 12.6236 151.593 23.4422 161.541 37.437L144.428 49.6001C132.101 32.2902 111.869 21.0004 89 21.0004C51.4448 21.0006 21 51.4452 21 89.0005C21.0003 126.555 51.4449 157 89 157C94.5114 157 99.8689 156.342 105 155.104V103.999H80V85.9995H123V171.248C110.292 176.501 96.4955 178.757 82.6895 177.776C65.5627 176.558 49.1533 170.413 35.4404 160.081C21.7276 149.748 11.2963 135.668 5.40431 119.54C-0.487531 103.413 -1.58908 85.9251 2.23341 69.186C6.05607 52.4468 14.6396 37.1699 26.9483 25.1987C39.257 13.2275 54.7665 5.07219 71.6055 1.71627Z" fill="url(#paint1_linear_633_259)"/>
<defs>
<linearGradient id="paint0_linear_633_259" x1="144" y1="172" x2="147.5" y2="208" gradientUnits="userSpaceOnUse">
<stop stop-color="white"/>
<stop offset="1"/>
</linearGradient>
<linearGradient id="paint1_linear_633_259" x1="144" y1="172" x2="147.5" y2="208" gradientUnits="userSpaceOnUse">
<stop stop-color="white"/>
<stop offset="1"/>
</linearGradient>
</defs>
</svg>
