<svg width="162" height="196" viewBox="0 0 162 196" fill="none" xmlns="http://www.w3.org/2000/svg">
<path d="M155 196H137V85.9999H155V196Z" fill="white"/>
<path d="M71.6054 1.71525C88.4442 -1.64051 105.895 -0.0531754 121.853 6.28459C137.81 12.6225 151.593 23.4414 161.541 37.436L144.428 49.599C132.101 32.2895 111.869 20.9994 89 20.9994C51.445 20.9996 21.0004 51.4445 21 88.9994C21.0001 126.555 51.4448 156.999 89 156.999C100.569 156.999 111.463 154.108 121 149.011V172.043C108.851 176.725 95.7747 178.705 82.6894 177.775C65.5627 176.557 49.1533 170.412 35.4404 160.08C21.7277 149.747 11.2961 135.667 5.40428 119.539C-0.487387 103.412 -1.58915 85.9239 2.23338 69.185C6.05614 52.4459 14.6396 37.1688 26.9482 25.1977C39.2569 13.2266 54.7666 5.07113 71.6054 1.71525Z" fill="white"/>
<path d="M121 145.538C115.405 148.409 109.361 150.526 103 151.758V100.667H78V85.9999H121V145.538Z" fill="url(#paint0_linear_634_304)"/>
<defs>
<linearGradient id="paint0_linear_634_304" x1="100" y1="86" x2="119.884" y2="144.368" gradientUnits="userSpaceOnUse">
<stop stop-color="white"/>
<stop offset="0.957672"/>
</linearGradient>
</defs>
</svg>
