<svg width="40" height="40" viewBox="0 0 40 40" fill="none" xmlns="http://www.w3.org/2000/svg">
<path fill-rule="evenodd" clip-rule="evenodd" d="M20 0C31.0456 0 39.9999 8.895 39.9999 19.8675C39.9999 30.8401 31.0456 39.7351 20 39.7351C8.95428 39.7351 0 30.8401 0 19.8675C0 8.895 8.95428 0 20 0ZM20 1.72185C9.91157 1.72185 1.73333 9.84595 1.73333 19.8675C1.73333 29.8891 9.91157 38.0132 20 38.0132C30.0883 38.0132 38.2666 29.8891 38.2666 19.8675C38.2666 9.84595 30.0883 1.72185 20 1.72185Z" fill="white"/>
<path d="M12.6146 1.66918C16.8393 0.00154861 21.5098 -0.186612 25.8566 1.13576C30.2033 2.45814 33.9669 5.21213 36.527 8.94386C39.0871 12.6756 40.291 17.1623 39.9404 21.6648C39.5897 26.1672 37.7054 30.4168 34.598 33.7129L33.3326 32.5358C36.3927 29.2912 38.2667 24.9293 38.2667 20.1324C38.2667 10.1108 30.0885 1.98673 20.0001 1.98673C17.6168 1.98673 15.3402 2.44024 13.2528 3.26492L12.6146 1.66918Z" fill="white"/>
<path d="M13.2901 3.25007C6.52165 5.90687 1.73335 12.4642 1.73335 20.1324C1.73335 30.154 9.91161 38.2781 20 38.2781C25.294 38.2781 30.0619 36.0407 33.3981 32.4661L34.6696 33.6365C32.6281 35.8249 30.1168 37.5285 27.3218 38.6207C24.5269 39.713 21.5202 40.1659 18.525 39.9459C15.5297 39.7259 12.6228 38.8384 10.02 37.3497C7.41728 35.8609 5.18543 33.8089 3.49025 31.3461C1.79505 28.8832 0.679993 26.0726 0.227886 23.123C-0.224208 20.1735 -0.001784 17.1607 0.878665 14.3082C1.75912 11.4558 3.27504 8.8369 5.31381 6.64605C7.35257 4.45522 9.86189 2.74868 12.6555 1.65304L13.2901 3.25007Z" fill="black"/>
<path d="M17.6957 9.36552C19.5943 8.85533 21.5996 8.88959 23.4795 9.46435C25.3594 10.0391 27.037 11.1308 28.3183 12.6133L26.6699 14.0191C25.0925 12.1328 22.7135 10.9317 20.052 10.9316C15.3028 10.9316 11.4527 14.7562 11.4527 19.474C11.4528 24.1918 15.3028 28.0163 20.052 28.0163C21.6784 28.0163 23.1991 27.5677 24.496 26.7884L24.6553 27.0785V28.8043C23.1204 29.4838 21.4387 29.7863 19.7535 29.6797C17.7906 29.5555 15.9031 28.8818 14.3096 27.7364C12.7161 26.591 11.4816 25.0209 10.7489 23.2076C10.0163 21.3943 9.81555 19.412 10.1698 17.4901C10.524 15.5682 11.4189 13.7851 12.7508 12.3473C14.0826 10.9096 15.797 9.87572 17.6957 9.36552Z" fill="white"/>
<path d="M24.6546 19.3377V28.7417H23.7271V20.5778H19.3213V19.3377H24.6546Z" fill="white"/>
<path d="M26.1085 19.3537H27.5619V32.468H26.1085V19.3537Z" fill="white"/>
</svg>
